# xmcd
# Copyright (C) 1995-1998 Ti Kan
#
# Track frame offsets:
#       182
#       19725
#       27725
#       40487
#       53700
#       71942
#       99267
#       117487
#       138000
#       151412
#       176642
#       195575
#
# Disc length: 2734 seconds
#
# Revision: 0
# Processed by: cddbd v1.5.2PL0 Copyright (c) Steve Scherf et al.
# Submitted via: CD-Import v1.0
#
DISCID=a60aac0c
DTITLE=Silvio Rodriguez - Silvio
DYEAR=1992
DGENRE=
TTITLE0=Compañera
TTITLE1=Trova De Edgardo
TTITLE2=La Desilusión
TTITLE3=Y Mariana
TTITLE4=Abracadabra
TTITLE5=Hombre
TTITLE6=Monólogo
TTITLE7=El Necio
TTITLE8=La Guitara Del Joven Soldado
TTITLE9=Quien Fuera
TTITLE10=Juego Que Me Regaló Un 6 De Enero
TTITLE11=Crisis
EXTD=
EXTT0=
EXTT1=
EXTT2=
EXTT3=
EXTT4=
EXTT5=
EXTT6=
EXTT7=
EXTT8=
EXTT9=
EXTT10=
EXTT11=
PLAYORDER=
